<?xml version="1.0" encoding="UTF-8"?>
<svg xmlns="http://www.w3.org/2000/svg" version="1.1" viewBox="0 0 348.3 376.8">
  <defs>
    <style>
      .cls-1 {
        fill: #fffcfe;
      }

      .cls-2 {
        fill: #fffbfd;
      }

      .cls-3 {
        fill: #ff57b9;
      }

      .cls-4 {
        fill: #fcfcff;
      }

      .cls-5 {
        fill: #777bfe;
      }
    </style>
  </defs>
  <!-- Generator: Adobe Illustrator 28.6.0, SVG Export Plug-In . SVG Version: 1.2.0 Build 709)  -->
  <g>
    <g id="Layer_1">
      <path class="cls-1" d="M84.6,311.4c-17.5,0-34.5,0-51.5,0q-6.5,0-6.5-6.6c0-81,0-161.9,0-242.9q0-6.4,6.7-6.5c27.8,0,55.7-.6,83.5.2,21.9.6,43.6,2.7,63.5,13.7,13.5,7.5,24,17.7,31.7,30.9,7.8,13.4,12.7,27.9,13.5,43.4,1.1,20,2.3,40,1.9,60-.3,16.5-2,33-7.6,48.9-8.7,24.4-25.1,40.8-49.1,50.1-13.5,5.2-27.4,7.7-41.8,8-14.6.3-29.2.7-44.2,1M221.6,209.8c0-14.8,0-29.6.1-44.5,0-13.7-1.3-27.3-5.2-40.4-6.5-22.1-18.5-40-39.5-51-16-8.4-33.3-11.9-51-12.2-30.1-.6-60.3-.3-90.4-.3-1.3,0-2.5.3-3.6.4v243.6c1.4,0,2.4.2,3.4.2,28.5,0,57,0,85.4,0,14.4,0,28.6-1.8,42.3-6.1,17.8-5.7,32.7-15.4,43-31.5,11.1-17.4,14.1-37,15.4-58.1Z"/>
      <path class="cls-4" d="M307.7,265.4c5.5,15.7,12.5,30.5,17,47-8.8,0-16.4.2-24-.2-1.4,0-3.2-2.1-3.8-3.6-2.8-7.1-5.5-14.4-7.8-21.7-.8-2.8-1.9-3.7-4.7-3.6-8.3.1-16.7.3-25,0-3.4-.1-4.7,1.4-5.6,4.1-2.4,7-4.7,14-7.1,20.9-.9,2.7-2.2,4.4-5.6,4.2-5.5-.4-11,0-16.5-.1-4.4,0-5.3-1.3-3.7-5.5,4.4-11.9,8.9-23.7,13.3-35.5,8.6-23.1,17-46.3,25.7-69.3.6-1.7,3.5-3.2,5.5-3.5,3.7-.6,7.7,0,11.5-.2,4.7-.4,6.4,1.8,7.9,6,7.4,20.3,15.2,40.5,22.9,61.1M283,277.5q8.6,0,11.5,8.1c2.2,6.1,4.2,12.3,6.5,18.3.5,1.3,1.9,3.1,3,3.2,4.2.4,8.4.2,12.6.2,0-1.3.1-1.9,0-2.3-12.3-32.7-24.5-65.5-36.9-98.1-.4-1.2-2.2-2.2-3.6-2.5-1.9-.4-4,.1-6-.2-4.1-.6-5.7,1.2-7.1,4.9-8.8,24.2-17.9,48.4-26.9,72.5-3.1,8.4-6.2,16.8-9.4,25.6,3.5,0,6.4-.2,9.1,0,3.8.4,5.7-1,6.8-4.7,2.1-7,4.9-13.8,7.2-20.7,1.1-3.4,3-4.7,6.6-4.6,8.5.2,17,0,26.5,0Z"/>
      <path class="cls-3" d="M221.6,210.3c-1.3,20.5-4.3,40.1-15.4,57.6-10.3,16.1-25.2,25.8-43,31.5-13.7,4.4-27.9,6.1-42.3,6.1-28.5,0-57,0-85.4,0-1,0-2-.1-3.4-.2V61.8c1.1-.1,2.3-.4,3.6-.4,30.1,0,60.3-.3,90.4.3,17.7.4,35,3.8,51,12.2,20.9,11,33,28.9,39.5,51,3.8,13.2,5.3,26.7,5.2,40.4,0,14.8,0,29.6-.1,45M172.8,121.8c-8.8-15.9-23.5-24-40.5-25.9-19.1-2.2-38.5-1.7-57.8-2.3-3.5-.1-4,2.1-4,4.9,0,56.6,0,113.2,0,169.9,0,3.5,1,5.2,4.8,5.1,16.6-.4,33.3-.2,49.9-1.2,12.8-.8,24.8-4.7,35-13.1,14.7-12.1,20.3-28.7,21.2-46.8.9-19.3.5-38.6.1-57.9-.2-11.2-3-22-8.7-32.7Z"/>
      <path class="cls-5" d="M282.5,277.5c-9,0-17.5.2-26,0-3.6,0-5.5,1.2-6.6,4.6-2.3,6.9-5.1,13.7-7.2,20.7-1.1,3.7-3,5.1-6.8,4.7-2.8-.3-5.6,0-9.1,0,3.3-8.9,6.3-17.3,9.4-25.6,9-24.2,18.1-48.3,26.9-72.5,1.4-3.7,3-5.6,7.1-4.9,2,.3,4.1-.3,6,.2,1.3.3,3.1,1.4,3.6,2.5,12.4,32.7,24.6,65.4,36.9,98.1.2.4,0,1,0,2.3-4.2,0-8.4.2-12.6-.2-1.1,0-2.5-1.9-3-3.2-2.3-6.1-4.4-12.2-6.5-18.3q-2.9-8.2-12-8.1M279,266.5c1.5,0,3.3.5,4.4-.2,1.3-.8,3.1-2.9,2.8-3.8-3.8-12.4-7.9-24.7-12.1-36.9-.3-1-1.9-2.2-2.8-2.2-.9,0-2.2,1.4-2.6,2.4-4,11.8-7.7,23.7-11.7,35.5-1.3,3.9,0,5.2,3.9,5.1,5.7-.1,11.3,0,17.9,0Z"/>
      <path class="cls-2" d="M173,122.1c5.5,10.4,8.3,21.2,8.5,32.4.4,19.3.8,38.6-.1,57.9-.9,18.1-6.4,34.7-21.2,46.8-10.1,8.3-22.2,12.3-35,13.1-16.6,1-33.3.7-49.9,1.2-3.8,0-4.8-1.6-4.8-5.1,0-56.6,0-113.2,0-169.9,0-2.9.5-5,4-4.9,19.3.7,38.7.2,57.8,2.3,17,1.9,31.7,10,40.7,26.3M113.1,267.4c7-.7,14.1-.7,20.9-2.1,16.3-3.3,28.8-12.1,36-27.7,4.2-9.1,6.3-18.9,6.4-28.6.1-21.8,2.1-43.7-1.8-65.4-1.8-10-5.1-19.6-12.4-27.3-11.4-11.9-26.2-15.8-41.7-16.8-13.6-.9-27.3-.2-40.9-.2-1.3,0-2.5.2-3.6.3v167.7c12.3,0,24.2,0,37.2,0Z"/>
      <path class="cls-4" d="M278.5,266.5c-6.1,0-11.8,0-17.5,0-3.8,0-5.2-1.3-3.9-5.1,3.9-11.8,7.7-23.7,11.7-35.5.4-1,1.6-2.4,2.6-2.4.9,0,2.4,1.2,2.8,2.2,4.2,12.3,8.3,24.5,12.1,36.9.3.9-1.5,3-2.8,3.8-1.1.6-2.9.1-4.9.2M265.7,261.4h14.4c-2.8-8.5-5.5-16.3-8.5-25.5-2.9,8.3-5.4,15-7.5,21.9-.3.8-3,3.2,1.6,3.6Z"/>
    </g>
  </g>
</svg>