<svg version="1.1" id="Layer_1" xmlns="http://www.w3.org/2000/svg" xmlns:xlink="http://www.w3.org/1999/xlink" x="0px" y="0px"
	 width="100%" viewBox="0 0 473 482" enable-background="new 0 0 473 482" xml:space="preserve">
<path fill="#000000" opacity="1.000000" stroke="none" 
	d="
M318.000000,483.000000 
	C212.000000,483.000000 106.500000,483.000000 1.000000,483.000000 
	C1.000000,322.333344 1.000000,161.666672 1.000000,1.000000 
	C158.666672,1.000000 316.333344,1.000000 474.000000,1.000000 
	C474.000000,161.666672 474.000000,322.333344 474.000000,483.000000 
	C422.166656,483.000000 370.333344,483.000000 318.000000,483.000000 
M142.500000,360.002533 
	C157.079727,359.669250 171.658600,359.290131 186.239441,359.015594 
	C200.624573,358.744720 214.540909,356.230499 228.004852,351.050751 
	C252.014664,341.813904 268.443451,325.427460 277.131165,300.995850 
	C282.782318,285.103729 284.402466,268.601105 284.746002,252.126358 
	C285.162415,232.155807 284.019073,212.125870 282.893280,192.158691 
	C282.021515,176.698044 277.210388,162.223297 269.361603,148.806488 
	C261.628418,135.587250 251.159241,125.341385 237.669891,117.889709 
	C217.812134,106.920059 196.038467,104.771133 174.166550,104.179459 
	C146.364822,103.427368 118.527306,103.994278 90.705223,103.999687 
	C83.999352,104.000992 83.997696,104.013969 83.997665,110.456657 
	C83.997292,191.423935 83.997314,272.391205 83.997612,353.358490 
	C83.997635,359.979889 83.998917,359.995911 90.520607,359.999451 
	C107.513741,360.008698 124.506866,360.002533 142.500000,360.002533 
M364.965149,313.595642 
	C357.318146,293.384735 349.532990,273.224152 342.138458,252.921265 
	C340.623566,248.761932 338.864136,246.537430 334.207794,246.930984 
	C330.404205,247.252457 326.492676,246.598923 322.744904,247.156601 
	C320.730072,247.456390 317.877930,248.984116 317.241425,250.657013 
	C308.476349,273.693878 300.058746,296.862610 291.496643,319.977081 
	C287.103882,331.835907 282.544922,343.633209 278.161591,355.495483 
	C276.592346,359.742188 277.515503,360.977631 281.880432,360.997528 
	C287.376587,361.022583 292.892029,360.726959 298.362274,361.104279 
	C301.804840,361.341736 303.075989,359.617096 303.977753,356.953583 
	C306.339447,349.977875 308.670471,342.991730 311.030243,336.015350 
	C311.937683,333.332581 313.280121,331.768982 316.676361,331.899384 
	C324.991821,332.218597 333.329437,332.097900 341.654510,331.950623 
	C344.425568,331.901642 345.502869,332.790527 346.350891,335.555359 
	C348.601624,342.893555 351.300354,350.105835 354.129547,357.245911 
	C354.731201,358.764252 356.597443,360.771912 357.959747,360.834229 
	C365.567108,361.182098 373.198639,361.001495 381.956299,361.001495 
	C377.499695,344.494995 370.456726,329.725067 364.965149,313.595642 
z"/>
<path fill="#FFFCFE" opacity="1.000000" stroke="none" 
	d="
M142.000000,360.002533 
	C124.506866,360.002533 107.513741,360.008698 90.520607,359.999451 
	C83.998917,359.995911 83.997635,359.979889 83.997612,353.358490 
	C83.997314,272.391205 83.997292,191.423935 83.997665,110.456657 
	C83.997696,104.013969 83.999352,104.000992 90.705223,103.999687 
	C118.527306,103.994278 146.364822,103.427368 174.166550,104.179459 
	C196.038467,104.771133 217.812134,106.920059 237.669891,117.889709 
	C251.159241,125.341385 261.628418,135.587250 269.361603,148.806488 
	C277.210388,162.223297 282.021515,176.698044 282.893280,192.158691 
	C284.019073,212.125870 285.162415,232.155807 284.746002,252.126358 
	C284.402466,268.601105 282.782318,285.103729 277.131165,300.995850 
	C268.443451,325.427460 252.014664,341.813904 228.004852,351.050751 
	C214.540909,356.230499 200.624573,358.744720 186.239441,359.015594 
	C171.658600,359.290131 157.079727,359.669250 142.000000,360.002533 
M278.957184,258.376068 
	C278.991241,243.551804 278.997314,228.727417 279.067596,213.903336 
	C279.132629,200.191666 277.729492,186.652496 273.881897,173.472366 
	C267.418945,151.332886 255.333908,133.496246 234.399734,122.468430 
	C218.423752,114.052513 201.136215,110.600700 183.425247,110.232201 
	C153.288925,109.605171 123.131866,109.969757 92.983498,109.945473 
	C91.729988,109.944458 90.476250,110.224617 89.415665,110.350807 
	C89.415665,191.808212 89.415665,272.831757 89.415665,353.916748 
	C90.808739,354.005157 91.799797,354.123383 92.790802,354.122955 
	C121.273697,354.110352 149.756592,354.081421 178.239487,354.065247 
	C192.632797,354.057098 206.800446,352.313171 220.524231,347.917908 
	C238.306534,342.222931 253.232910,332.529175 263.509613,316.449066 
	C274.656281,299.007629 277.613312,279.406189 278.957184,258.376068 
z"/>
<path fill="#FCFCFF" opacity="1.000000" stroke="none" 
	d="
M365.003693,313.997101 
	C370.456726,329.725067 377.499695,344.494995 381.956299,361.001495 
	C373.198639,361.001495 365.567108,361.182098 357.959747,360.834229 
	C356.597443,360.771912 354.731201,358.764252 354.129547,357.245911 
	C351.300354,350.105835 348.601624,342.893555 346.350891,335.555359 
	C345.502869,332.790527 344.425568,331.901642 341.654510,331.950623 
	C333.329437,332.097900 324.991821,332.218597 316.676361,331.899384 
	C313.280121,331.768982 311.937683,333.332581 311.030243,336.015350 
	C308.670471,342.991730 306.339447,349.977875 303.977753,356.953583 
	C303.075989,359.617096 301.804840,361.341736 298.362274,361.104279 
	C292.892029,360.726959 287.376587,361.022583 281.880432,360.997528 
	C277.515503,360.977631 276.592346,359.742188 278.161591,355.495483 
	C282.544922,343.633209 287.103882,331.835907 291.496643,319.977081 
	C300.058746,296.862610 308.476349,273.693878 317.241425,250.657013 
	C317.877930,248.984116 320.730072,247.456390 322.744904,247.156601 
	C326.492676,246.598923 330.404205,247.252457 334.207794,246.930984 
	C338.864136,246.537430 340.623566,248.761932 342.138458,252.921265 
	C349.532990,273.224152 357.318146,293.384735 365.003693,313.997101 
M340.364075,326.099152 
	C348.962219,326.099609 348.971344,326.096375 351.846344,334.246582 
	C354.005096,340.366333 356.041107,346.532196 358.355957,352.591919 
	C358.853851,353.895294 360.237915,355.683990 361.345947,355.783936 
	C365.531891,356.161560 369.772278,355.935699 373.979675,355.935699 
	C373.979675,354.612488 374.120239,354.070801 373.959656,353.641815 
	C361.708130,320.916595 349.457153,288.191010 337.060455,255.520767 
	C336.619690,254.359268 334.820465,253.300171 333.472870,252.994995 
	C331.570312,252.564178 329.457947,253.136154 327.506989,252.826996 
	C323.421509,252.179611 321.775818,254.044754 320.423218,257.759460 
	C311.598480,281.995026 302.499481,306.130676 293.514557,330.308075 
	C290.402222,338.683105 287.359314,347.083893 284.108490,355.953674 
	C287.619171,355.953674 290.464050,355.713867 293.251251,356.012360 
	C297.022034,356.416168 298.931061,355.058563 300.069885,351.348999 
	C302.216461,344.356842 304.983459,337.557648 307.285248,330.609589 
	C308.399261,327.246918 310.305969,325.933380 313.907043,326.027863 
	C322.399536,326.250793 330.901855,326.099335 340.364075,326.099152 
z"/>
<path fill="#FF57B9" opacity="1.000000" stroke="none" 
	d="
M278.949890,258.857849 
	C277.613312,279.406189 274.656281,299.007629 263.509613,316.449066 
	C253.232910,332.529175 238.306534,342.222931 220.524231,347.917908 
	C206.800446,352.313171 192.632797,354.057098 178.239487,354.065247 
	C149.756592,354.081421 121.273697,354.110352 92.790802,354.122955 
	C91.799797,354.123383 90.808739,354.005157 89.415665,353.916748 
	C89.415665,272.831757 89.415665,191.808212 89.415665,110.350807 
	C90.476250,110.224617 91.729988,109.944458 92.983498,109.945473 
	C123.131866,109.969757 153.288925,109.605171 183.425247,110.232201 
	C201.136215,110.600700 218.423752,114.052513 234.399734,122.468430 
	C255.333908,133.496246 267.418945,151.332886 273.881897,173.472366 
	C277.729492,186.652496 279.132629,200.191666 279.067596,213.903336 
	C278.997314,228.727417 278.991241,243.551804 278.949890,258.857849 
M230.180344,170.380692 
	C221.346313,154.463120 206.723267,146.376984 189.689926,144.434570 
	C170.596680,142.257233 151.198822,142.748703 131.933182,142.088181 
	C128.449265,141.968719 127.957596,144.153183 127.959335,147.011826 
	C127.993706,203.636490 128.004135,260.261200 127.938179,316.885803 
	C127.934074,320.412231 128.941467,322.109894 132.756317,322.013611 
	C149.387268,321.593933 166.051895,321.831635 182.645920,320.846954 
	C195.419647,320.088989 207.463760,316.130707 217.612228,307.784821 
	C232.338760,295.674072 237.905411,279.045776 238.767120,260.983521 
	C239.685562,241.732834 239.276245,222.398758 238.876312,203.112900 
	C238.643539,191.887894 235.848206,181.066330 230.180344,170.380692 
z"/>
<path fill="#777BFE" opacity="1.000000" stroke="none" 
	d="
M339.882141,326.099243 
	C330.901855,326.099335 322.399536,326.250793 313.907043,326.027863 
	C310.305969,325.933380 308.399261,327.246918 307.285248,330.609589 
	C304.983459,337.557648 302.216461,344.356842 300.069885,351.348999 
	C298.931061,355.058563 297.022034,356.416168 293.251251,356.012360 
	C290.464050,355.713867 287.619171,355.953674 284.108490,355.953674 
	C287.359314,347.083893 290.402222,338.683105 293.514557,330.308075 
	C302.499481,306.130676 311.598480,281.995026 320.423218,257.759460 
	C321.775818,254.044754 323.421509,252.179611 327.506989,252.826996 
	C329.457947,253.136154 331.570312,252.564178 333.472870,252.994995 
	C334.820465,253.300171 336.619690,254.359268 337.060455,255.520767 
	C349.457153,288.191010 361.708130,320.916595 373.959656,353.641815 
	C374.120239,354.070801 373.979675,354.612488 373.979675,355.935699 
	C369.772278,355.935699 365.531891,356.161560 361.345947,355.783936 
	C360.237915,355.683990 358.853851,353.895294 358.355957,352.591919 
	C356.041107,346.532196 354.005096,340.366333 351.846344,334.246582 
	C348.971344,326.096375 348.962219,326.099609 339.882141,326.099243 
M336.354858,315.078247 
	C337.852173,315.072479 339.643707,315.576874 340.769867,314.927460 
	C342.077911,314.173187 343.902893,312.067017 343.613831,311.131500 
	C339.789246,298.754150 335.674561,286.464966 331.477173,274.206879 
	C331.138824,273.218811 329.626740,271.975739 328.720978,272.022827 
	C327.807220,272.070282 326.517761,273.426422 326.167450,274.469360 
	C322.201447,286.276489 318.431396,298.149323 314.500458,309.968475 
	C313.218842,313.821869 314.568848,315.188995 318.416992,315.107452 
	C324.071167,314.987640 329.729828,315.077698 336.354858,315.078247 
z"/>
<path fill="#FFFBFD" opacity="1.000000" stroke="none" 
	d="
M230.358505,170.705292 
	C235.848206,181.066330 238.643539,191.887894 238.876312,203.112900 
	C239.276245,222.398758 239.685562,241.732834 238.767120,260.983521 
	C237.905411,279.045776 232.338760,295.674072 217.612228,307.784821 
	C207.463760,316.130707 195.419647,320.088989 182.645920,320.846954 
	C166.051895,321.831635 149.387268,321.593933 132.756317,322.013611 
	C128.941467,322.109894 127.934074,320.412231 127.938179,316.885803 
	C128.004135,260.261200 127.993706,203.636490 127.959335,147.011826 
	C127.957596,144.153183 128.449265,141.968719 131.933182,142.088181 
	C151.198822,142.748703 170.596680,142.257233 189.689926,144.434570 
	C206.723267,146.376984 221.346313,154.463120 230.358505,170.705292 
M170.485031,315.997101 
	C177.465759,315.328979 184.570633,315.268158 191.402466,313.871643 
	C207.748520,310.530212 220.207733,301.749420 227.361252,286.197693 
	C231.545151,277.101929 233.688522,267.300873 233.748810,257.602112 
	C233.884354,235.800018 235.867096,213.863693 231.911865,192.199280 
	C230.082642,182.179947 226.835663,172.617783 219.488327,164.932938 
	C208.094116,153.015350 193.322617,149.151947 177.797394,148.180496 
	C164.197189,147.329498 150.501556,147.995331 136.848114,148.016602 
	C135.591507,148.018555 134.335190,148.205139 133.294983,148.288651 
	C133.294983,204.388779 133.294983,260.088928 133.294983,315.997162 
	C145.553970,315.997162 157.521729,315.997162 170.485031,315.997101 
z"/>
<path fill="#FCFCFF" opacity="1.000000" stroke="none" 
	d="
M335.870728,315.078308 
	C329.729828,315.077698 324.071167,314.987640 318.416992,315.107452 
	C314.568848,315.188995 313.218842,313.821869 314.500458,309.968475 
	C318.431396,298.149323 322.201447,286.276489 326.167450,274.469360 
	C326.517761,273.426422 327.807220,272.070282 328.720978,272.022827 
	C329.626740,271.975739 331.138824,273.218811 331.477173,274.206879 
	C335.674561,286.464966 339.789246,298.754150 343.613831,311.131500 
	C343.902893,312.067017 342.077911,314.173187 340.769867,314.927460 
	C339.643707,315.576874 337.852173,315.072479 335.870728,315.078308 
M323.031403,309.996246 
	C327.638611,309.996246 332.245850,309.996246 337.472046,309.996246 
	C334.638489,301.524780 332.010468,293.667755 328.941833,284.493530 
	C326.042969,292.762024 323.565857,299.504791 321.428650,306.353607 
	C321.176453,307.161713 318.451843,309.569061 323.031403,309.996246 
z"/>
<path fill="#000000" opacity="1.000000" stroke="none" 
	d="
M169.987259,315.997131 
	C157.521729,315.997162 145.553970,315.997162 133.294983,315.997162 
	C133.294983,260.088928 133.294983,204.388779 133.294983,148.288651 
	C134.335190,148.205139 135.591507,148.018555 136.848114,148.016602 
	C150.501556,147.995331 164.197189,147.329498 177.797394,148.180496 
	C193.322617,149.151947 208.094116,153.015350 219.488327,164.932938 
	C226.835663,172.617783 230.082642,182.179947 231.911865,192.199280 
	C235.867096,213.863693 233.884354,235.800018 233.748810,257.602112 
	C233.688522,267.300873 231.545151,277.101929 227.361252,286.197693 
	C220.207733,301.749420 207.748520,310.530212 191.402466,313.871643 
	C184.570633,315.268158 177.465759,315.328979 169.987259,315.997131 
z"/>
<path fill="#000000" opacity="1.000000" stroke="none" 
	d="
M322.594208,309.995972 
	C318.451843,309.569061 321.176453,307.161713 321.428650,306.353607 
	C323.565857,299.504791 326.042969,292.762024 328.941833,284.493530 
	C332.010468,293.667755 334.638489,301.524780 337.472046,309.996246 
	C332.245850,309.996246 327.638611,309.996246 322.594208,309.995972 
z"/>
</svg>